<svg xmlns="http://www.w3.org/2000/svg" viewBox="0 0 200 200" width="32" height="32">
  <!-- White background -->
  <rect width="200" height="200" fill="#ffffff"/>

  <!-- Vectorized fist shape from potrace -->
  <g transform="translate(0,200) scale(0.1,-0.1)" fill="#000000" stroke="none">
    <path d="M1076 1985 c-43 -15 -106 -71 -106 -94 0 -18 131 -241 142 -241 8 0 208 98 217 106 5 5 -119 228 -133 236 -18 12 -77 8 -120 -7z"/>
    <path d="M735 1856 c-38 -17 -94 -74 -101 -103 -9 -32 -5 -39 104 -193 l97 -139 18 42 c25 57 42 74 110 109 56 28 58 30 45 51 -8 12 -45 73 -82 135 l-67 112 -47 0 c-26 -1 -60 -7 -77 -14z"/>
    <path d="M1183 1576 c-126 -63 -233 -122 -237 -131 -11 -30 -6 -62 12 -77 54 -48 130 -63 239 -47 124 19 114 22 133 -51 9 -36 15 -71 12 -78 -2 -7 -47 -41 -100 -76 -173 -113 -243 -210 -263 -367 -13 -99 -19 -113 -48 -117 -37 -6 -51 15 -51 74 0 186 98 352 280 470 l75 49 -115 -1 c-123 -1 -160 -8 -160 -28 0 -19 -120 -130 -167 -154 -24 -13 -43 -31 -47 -44 -10 -38 -83 -116 -122 -128 -71 -24 -100 -8 -283 159 l-81 73 0 -103 c1 -134 10 -161 140 -390 l105 -184 3 -191 c3 -175 5 -193 23 -213 20 -21 24 -21 458 -21 412 0 439 1 454 18 24 26 22 47 -23 247 -60 265 -69 227 120 496 89 126 170 250 182 276 26 59 35 158 18 209 -13 39 -227 384 -259 416 -38 40 -56 35 -298 -86z"/>
    <path d="M530 1630 c-47 -8 -73 -23 -104 -60 -33 -40 -43 -93 -23 -123 25 -37 287 -311 307 -321 21 -10 92 34 134 85 25 29 25 32 10 57 -50 85 -252 356 -269 362 -11 3 -36 4 -55 0z"/>
    <path d="M355 1326 c-41 -18 -65 -47 -71 -88 -6 -33 -2 -37 131 -156 150 -134 167 -142 208 -92 50 59 49 60 -80 197 -144 153 -148 156 -188 139z"/>
  </g>
</svg>
